<svg width="503.601" height="69.802" viewBox="0 0 503.601 69.802" xmlns="http://www.w3.org/2000/svg"><g id="svgGroup" stroke-linecap="round" fill-rule="evenodd" font-size="9pt" stroke="#e0bbe4" stroke-width="0.25mm" fill="#e0bbe4" style="stroke:#e0bbe4;stroke-width:0.25mm;fill:#e0bbe4"><path d="M 66.6 11.701 L 66.6 54.101 Q 66.6 61.039 64.473 64.565 A 8.535 8.535 0 0 1 63.7 65.651 Q 60.8 69.101 54.9 69.101 A 16.872 16.872 0 0 1 51.73 68.823 Q 48.299 68.165 46.4 65.951 A 8.738 8.738 0 0 1 44.919 63.361 Q 43.949 60.826 43.751 56.903 A 41.762 41.762 0 0 1 43.7 54.801 L 43.6 43.501 L 23.2 43.501 L 23.2 54.101 Q 23.2 62.301 20.4 65.701 A 8.671 8.671 0 0 1 16.351 68.402 Q 14.264 69.101 11.5 69.101 A 16.872 16.872 0 0 1 8.33 68.823 Q 4.899 68.165 3 65.951 A 8.738 8.738 0 0 1 1.519 63.361 Q 0.549 60.826 0.351 56.903 A 41.762 41.762 0 0 1 0.3 54.801 L 0 12.601 A 19.296 19.296 0 0 1 0.274 9.231 Q 0.929 5.545 3.15 3.501 A 10.699 10.699 0 0 1 8.309 0.913 A 15.507 15.507 0 0 1 11.5 0.601 Q 17.5 0.601 20.35 2.801 Q 23.2 5.001 23.2 11.701 L 23.2 28.501 L 43.5 28.501 L 43.5 12.601 Q 43.5 9.18 44.529 6.721 A 10.16 10.16 0 0 1 45.05 5.651 A 10.559 10.559 0 0 1 46.609 3.519 A 8.164 8.164 0 0 1 49.05 1.751 A 11.649 11.649 0 0 1 51.922 0.853 Q 53.209 0.618 54.677 0.602 A 19.83 19.83 0 0 1 54.9 0.601 A 24.493 24.493 0 0 1 58.093 0.794 Q 61.576 1.254 63.65 2.801 A 5.998 5.998 0 0 1 65.477 5.144 Q 66.6 7.565 66.6 11.701 Z M 366.4 19.401 A 4.481 4.481 0 0 0 365.012 16.136 A 6.244 6.244 0 0 0 364.65 15.801 Q 362.9 14.301 360.5 14.301 A 7.794 7.794 0 0 0 354.832 16.746 Q 353.624 17.952 352.6 19.751 A 23.856 23.856 0 0 0 349.592 29.772 A 29.159 29.159 0 0 0 349.5 32.101 A 24.172 24.172 0 0 0 350.133 37.731 A 20.202 20.202 0 0 0 351.5 41.651 Q 353.5 45.901 357.3 48.401 A 15.237 15.237 0 0 0 364.567 50.84 A 18.947 18.947 0 0 0 366.1 50.901 Q 369.8 50.901 373.2 49.451 A 29.44 29.44 0 0 0 375.568 48.321 Q 377.388 47.344 378.7 46.251 Q 380.8 44.501 383.05 43.051 Q 385.3 41.601 387 41.601 A 4.915 4.915 0 0 1 390.572 43.113 A 6.663 6.663 0 0 1 390.8 43.351 Q 392.304 44.995 392.395 46.773 A 4.486 4.486 0 0 1 392.4 47.001 A 8.747 8.747 0 0 1 392.198 48.804 Q 392.015 49.671 391.666 50.631 A 19.239 19.239 0 0 1 391.15 51.901 A 19.403 19.403 0 0 1 389.783 54.412 Q 388.722 56.076 387.2 57.851 A 37.013 37.013 0 0 1 381.895 62.895 A 41.847 41.847 0 0 1 380.9 63.651 Q 377.525 66.135 372.612 67.828 A 44.25 44.25 0 0 1 371.95 68.051 Q 366.6 69.801 360.7 69.801 A 45.46 45.46 0 0 1 350.958 68.788 A 39.4 39.4 0 0 1 346.25 67.451 Q 339.6 65.101 334.7 60.751 A 29.346 29.346 0 0 1 328.025 52.003 A 35.008 35.008 0 0 1 327 49.801 A 35.216 35.216 0 0 1 324.474 39.969 A 43.994 43.994 0 0 1 324.2 35.001 A 43.759 43.759 0 0 1 325.453 24.235 A 30.703 30.703 0 0 1 333.9 9.401 A 32.819 32.819 0 0 1 352.048 0.552 A 45.942 45.942 0 0 1 359.3 0.001 Q 367.3 0.001 374.1 2.701 A 30.309 30.309 0 0 1 380.031 5.809 A 23.653 23.653 0 0 1 384.9 10.201 A 17.776 17.776 0 0 1 387.837 15.062 A 15.249 15.249 0 0 1 388.9 20.701 A 18.343 18.343 0 0 1 384.505 32.645 A 19.371 19.371 0 0 1 384.5 32.651 A 14.36 14.36 0 0 1 378.956 36.883 A 14.951 14.951 0 0 1 373.1 38.001 Q 369.1 38.001 365.9 35.801 Q 362.7 33.601 362.7 29.501 Q 362.7 27.601 364.55 24.201 Q 366.227 21.119 366.384 19.681 A 2.586 2.586 0 0 0 366.4 19.401 Z M 252.1 11.701 L 252.1 54.101 Q 252.1 60.981 250.152 64.506 A 8.607 8.607 0 0 1 249.4 65.651 A 8.594 8.594 0 0 1 244.679 68.674 Q 243.069 69.101 241.1 69.101 A 15.884 15.884 0 0 1 237.899 68.801 Q 236.092 68.429 234.749 67.592 A 7.347 7.347 0 0 1 232.3 65.101 Q 225.8 69.801 216.6 69.801 A 15.771 15.771 0 0 1 204.683 64.594 A 21.28 21.28 0 0 1 203.6 63.351 Q 199.075 57.737 198.488 48.526 A 44.441 44.441 0 0 1 198.4 45.701 A 41.434 41.434 0 0 1 199.003 38.413 Q 200.154 31.98 203.5 27.551 Q 208.6 20.801 216.6 20.801 A 22.106 22.106 0 0 1 228.811 24.514 A 27.603 27.603 0 0 1 230.1 25.401 L 230.1 12.601 A 19.719 19.719 0 0 1 230.365 9.256 Q 230.991 5.625 233.1 3.551 Q 236.1 0.601 241.1 0.601 A 21.95 21.95 0 0 1 244.124 0.794 Q 247.417 1.254 249.35 2.801 A 5.839 5.839 0 0 1 250.972 4.963 Q 251.886 6.944 252.06 10.139 A 28.833 28.833 0 0 1 252.1 11.701 Z M 112.2 47.401 L 98.1 47.501 A 9.824 9.824 0 0 0 99.975 50.973 A 9.393 9.393 0 0 0 101.7 52.551 Q 104.3 54.401 108.3 54.401 A 36.388 36.388 0 0 0 115.839 53.588 A 41.187 41.187 0 0 0 117.1 53.301 A 18.728 18.728 0 0 0 118.959 52.7 Q 120.055 52.285 121.25 51.701 A 22.578 22.578 0 0 1 122.236 51.245 Q 123.735 50.601 124.5 50.601 A 4.655 4.655 0 0 1 125.581 50.719 A 3.103 3.103 0 0 1 127.15 51.601 A 3.425 3.425 0 0 1 128.092 53.818 A 4.521 4.521 0 0 1 128.1 54.101 A 5.203 5.203 0 0 1 127.896 55.483 Q 127.552 56.726 126.63 58.241 A 18.372 18.372 0 0 1 126.5 58.451 A 20.222 20.222 0 0 1 124.657 60.921 Q 123.662 62.071 122.413 63.222 A 34.275 34.275 0 0 1 122.05 63.551 A 19.439 19.439 0 0 1 118.972 65.776 Q 117.429 66.689 115.568 67.472 A 35.359 35.359 0 0 1 114.5 67.901 A 27.666 27.666 0 0 1 105.49 69.682 A 31.78 31.78 0 0 1 104.4 69.701 A 38.809 38.809 0 0 1 95.271 68.681 A 28.135 28.135 0 0 1 84.25 63.401 A 20.334 20.334 0 0 1 76.396 48.53 A 27.946 27.946 0 0 1 76.3 46.201 A 28.63 28.63 0 0 1 77.404 38.047 A 21.926 21.926 0 0 1 84.15 27.551 A 27.273 27.273 0 0 1 97.353 21.32 A 38.361 38.361 0 0 1 104.4 20.701 A 52.385 52.385 0 0 1 110.487 21.029 Q 117.633 21.868 121.55 24.851 A 13.239 13.239 0 0 1 126.915 34.448 A 17.623 17.623 0 0 1 127 36.201 Q 127 37.601 126.65 38.901 A 9.813 9.813 0 0 1 125.775 41.059 A 11.235 11.235 0 0 1 125.55 41.451 A 8.753 8.753 0 0 1 124.214 43.144 A 10.537 10.537 0 0 1 123.55 43.751 A 15.598 15.598 0 0 1 121.573 45.157 A 18.335 18.335 0 0 1 120.7 45.651 A 12.073 12.073 0 0 1 118.891 46.421 Q 117.995 46.723 116.967 46.937 A 19.595 19.595 0 0 1 116.9 46.951 A 22.388 22.388 0 0 1 113.583 47.365 A 26.424 26.424 0 0 1 112.2 47.401 Z M 467.9 47.701 L 467.9 35.901 A 14.823 14.823 0 0 1 466.308 35.756 Q 464.888 35.544 463.9 35.051 A 5.927 5.927 0 0 1 462.823 34.367 A 4.194 4.194 0 0 1 461.75 33.101 A 5.046 5.046 0 0 1 461.273 31.797 Q 461.1 31.029 461.1 30.101 Q 461.1 24.82 467.023 24.002 A 15.172 15.172 0 0 1 468 23.901 L 468 14.601 Q 468 10.801 473.5 7.751 A 25.561 25.561 0 0 1 478.805 5.511 A 20.107 20.107 0 0 1 484.4 4.701 Q 487.7 4.701 488.7 6.601 A 6.962 6.962 0 0 1 489.249 8.052 Q 489.637 9.509 489.691 11.599 A 26.886 26.886 0 0 1 489.7 12.301 L 489.8 23.801 L 492.5 23.801 A 32.806 32.806 0 0 1 494.999 23.888 Q 497.412 24.074 498.897 24.649 A 5.329 5.329 0 0 1 500.05 25.251 A 4.353 4.353 0 0 1 501.58 27.268 Q 501.885 28.04 502.011 29.017 A 11.596 11.596 0 0 1 502.1 30.501 Q 502.1 31.945 501.612 32.981 A 4.178 4.178 0 0 1 501.5 33.201 Q 500.9 34.301 499.55 34.901 Q 498.2 35.501 496.3 35.751 A 25.629 25.629 0 0 1 494.749 35.903 Q 494.05 35.952 493.263 35.976 A 53.72 53.72 0 0 1 491.6 36.001 L 489.8 36.001 L 489.8 47.001 Q 489.8 48.601 489.95 49.651 A 8.748 8.748 0 0 0 490.059 50.263 Q 490.194 50.888 490.4 51.301 A 1.826 1.826 0 0 0 490.685 51.722 A 1.412 1.412 0 0 0 491.25 52.101 A 3.045 3.045 0 0 0 491.777 52.237 Q 492.033 52.281 492.326 52.294 A 5.889 5.889 0 0 0 492.6 52.301 A 2.775 2.775 0 0 0 493.724 52.078 A 2.664 2.664 0 0 0 494.6 51.451 Q 495.4 50.601 495.85 49.551 Q 496.3 48.501 497.05 47.651 A 2.76 2.76 0 0 1 497.661 47.124 A 2.12 2.12 0 0 1 498.8 46.801 A 7.723 7.723 0 0 1 500.181 46.916 Q 500.947 47.056 501.552 47.363 A 3.816 3.816 0 0 1 502.35 47.901 A 3.754 3.754 0 0 1 503.237 49.021 A 3.446 3.446 0 0 1 503.6 50.601 A 15.95 15.95 0 0 1 503.277 53.719 A 21.429 21.429 0 0 1 502.55 56.401 A 23.916 23.916 0 0 1 499.989 61.667 A 27.172 27.172 0 0 1 499.5 62.401 A 14.492 14.492 0 0 1 495.922 65.984 A 18.295 18.295 0 0 1 493.95 67.201 A 16.19 16.19 0 0 1 487.355 69.054 A 19.509 19.509 0 0 1 486 69.101 A 30.777 30.777 0 0 1 481.02 68.727 Q 474.979 67.733 472 64.101 A 14.721 14.721 0 0 1 469.624 59.794 Q 467.9 55.093 467.9 47.701 Z M 189.4 32.401 L 189.4 58.401 Q 189.4 63.618 187.51 66.075 A 5.662 5.662 0 0 1 186.9 66.751 A 6.917 6.917 0 0 1 184.733 68.088 Q 182.675 68.922 179.508 69.069 A 30.38 30.38 0 0 1 178.1 69.101 A 18.18 18.18 0 0 1 175.082 68.869 Q 170.975 68.176 169.4 65.401 A 25.256 25.256 0 0 1 158.125 69.48 A 32.319 32.319 0 0 1 154.3 69.701 A 15.898 15.898 0 0 1 142.285 64.494 A 21.037 21.037 0 0 1 141.2 63.251 Q 136.675 57.637 136.088 48.426 A 44.441 44.441 0 0 1 136 45.601 A 41.041 41.041 0 0 1 136.609 38.313 Q 137.353 34.192 139.008 30.893 A 21.688 21.688 0 0 1 141.15 27.451 Q 146.3 20.701 154.3 20.701 A 22.431 22.431 0 0 1 167.226 24.834 A 29.105 29.105 0 0 1 169.3 26.401 A 9.568 9.568 0 0 1 172.07 23.14 Q 174.461 21.401 178 21.401 Q 181.811 21.401 184.426 22.571 A 9.429 9.429 0 0 1 186.4 23.751 A 6.703 6.703 0 0 1 188.398 26.436 Q 189.338 28.613 189.397 31.95 A 25.573 25.573 0 0 1 189.4 32.401 Z M 314.3 32.401 L 314.3 58.401 Q 314.3 63.618 312.41 66.075 A 5.662 5.662 0 0 1 311.8 66.751 A 6.917 6.917 0 0 1 309.633 68.088 Q 307.575 68.922 304.408 69.069 A 30.38 30.38 0 0 1 303 69.101 A 18.18 18.18 0 0 1 299.982 68.869 Q 295.875 68.176 294.3 65.401 A 25.256 25.256 0 0 1 283.025 69.48 A 32.319 32.319 0 0 1 279.2 69.701 A 15.898 15.898 0 0 1 267.185 64.494 A 21.037 21.037 0 0 1 266.1 63.251 Q 261.575 57.637 260.988 48.426 A 44.441 44.441 0 0 1 260.9 45.601 A 41.041 41.041 0 0 1 261.509 38.313 Q 262.253 34.192 263.908 30.893 A 21.688 21.688 0 0 1 266.05 27.451 Q 271.2 20.701 279.2 20.701 A 22.431 22.431 0 0 1 292.126 24.834 A 29.105 29.105 0 0 1 294.2 26.401 A 9.568 9.568 0 0 1 296.97 23.14 Q 299.361 21.401 302.9 21.401 Q 306.711 21.401 309.326 22.571 A 9.429 9.429 0 0 1 311.3 23.751 A 6.703 6.703 0 0 1 313.298 26.436 Q 314.238 28.613 314.297 31.95 A 25.573 25.573 0 0 1 314.3 32.401 Z M 453.5 32.401 L 453.5 58.401 Q 453.5 63.618 451.61 66.075 A 5.662 5.662 0 0 1 451 66.751 A 6.917 6.917 0 0 1 448.833 68.088 Q 446.775 68.922 443.608 69.069 A 30.38 30.38 0 0 1 442.2 69.101 A 18.18 18.18 0 0 1 439.182 68.869 Q 435.075 68.176 433.5 65.401 A 25.256 25.256 0 0 1 422.225 69.48 A 32.319 32.319 0 0 1 418.4 69.701 A 15.898 15.898 0 0 1 406.385 64.494 A 21.037 21.037 0 0 1 405.3 63.251 Q 400.775 57.637 400.188 48.426 A 44.441 44.441 0 0 1 400.1 45.601 A 41.041 41.041 0 0 1 400.709 38.313 Q 401.453 34.192 403.108 30.893 A 21.688 21.688 0 0 1 405.25 27.451 Q 410.4 20.701 418.4 20.701 A 22.431 22.431 0 0 1 431.326 24.834 A 29.105 29.105 0 0 1 433.4 26.401 A 9.568 9.568 0 0 1 436.17 23.14 Q 438.561 21.401 442.1 21.401 Q 445.911 21.401 448.526 22.571 A 9.429 9.429 0 0 1 450.5 23.751 A 6.703 6.703 0 0 1 452.498 26.436 Q 453.438 28.613 453.497 31.95 A 25.573 25.573 0 0 1 453.5 32.401 Z M 230.3 54.701 L 230.2 36.001 A 7.281 7.281 0 0 0 229.103 34.585 A 4.551 4.551 0 0 0 225.8 33.201 A 3.07 3.07 0 0 0 223.952 33.836 Q 223.32 34.299 222.75 35.101 A 11.91 11.91 0 0 0 221.499 37.373 Q 221.043 38.453 220.721 39.719 A 19.504 19.504 0 0 0 220.7 39.801 A 23.909 23.909 0 0 0 220.011 44.93 A 26.971 26.971 0 0 0 220 45.701 Q 220 50.301 221.5 53.901 Q 223 57.501 225.7 57.501 Q 226.2 57.501 226.7 57.401 A 6.591 6.591 0 0 0 227.203 57.28 A 5.051 5.051 0 0 0 227.6 57.151 A 4.316 4.316 0 0 0 228.2 56.869 A 5.034 5.034 0 0 0 228.4 56.751 A 4.137 4.137 0 0 0 228.898 56.388 A 3.541 3.541 0 0 0 229.1 56.201 Q 229.4 55.901 229.7 55.501 L 230.3 54.701 Z M 167.9 54.701 L 167.9 36.001 A 7.561 7.561 0 0 0 166.834 34.566 A 4.483 4.483 0 0 0 163.5 33.101 A 3.452 3.452 0 0 0 161.053 34.142 Q 160.063 35.09 159.3 36.901 A 20.032 20.032 0 0 0 157.964 41.801 A 26.303 26.303 0 0 0 157.7 45.601 Q 157.7 50.201 159.2 53.801 Q 160.7 57.401 163.4 57.401 A 4.869 4.869 0 0 0 167.224 55.618 A 7.435 7.435 0 0 0 167.9 54.701 Z M 292.8 54.701 L 292.8 36.001 A 7.561 7.561 0 0 0 291.734 34.566 A 4.483 4.483 0 0 0 288.4 33.101 A 3.452 3.452 0 0 0 285.953 34.142 Q 284.963 35.09 284.2 36.901 A 20.032 20.032 0 0 0 282.864 41.801 A 26.303 26.303 0 0 0 282.6 45.601 Q 282.6 50.201 284.1 53.801 Q 285.6 57.401 288.3 57.401 A 4.869 4.869 0 0 0 292.124 55.618 A 7.435 7.435 0 0 0 292.8 54.701 Z M 432 54.701 L 432 36.001 A 7.561 7.561 0 0 0 430.934 34.566 A 4.483 4.483 0 0 0 427.6 33.101 A 3.452 3.452 0 0 0 425.153 34.142 Q 424.163 35.09 423.4 36.901 A 20.032 20.032 0 0 0 422.064 41.801 A 26.303 26.303 0 0 0 421.8 45.601 Q 421.8 50.201 423.3 53.801 Q 424.8 57.401 427.5 57.401 A 4.869 4.869 0 0 0 431.324 55.618 A 7.435 7.435 0 0 0 432 54.701 Z M 99.227 41.077 A 9181.903 9181.903 0 0 0 97.6 41.101 A 27.446 27.446 0 0 1 97.864 39.043 A 22.611 22.611 0 0 1 98.9 35.051 Q 99.9 32.301 101.25 30.801 Q 102.6 29.301 104 29.301 Q 107.088 29.301 107.667 33.46 A 15.619 15.619 0 0 1 107.8 35.601 A 20.869 20.869 0 0 1 107.8 35.696 Q 107.79 37.928 107.3 39.201 A 5.127 5.127 0 0 1 107.247 39.332 Q 106.545 41.001 105.1 41.001 A 15.432 15.432 0 0 0 105.013 41.001 Q 104.232 41.005 99.227 41.077 Z" vector-effect="non-scaling-stroke"/></g></svg>