<svg width="451.255" height="73" viewBox="0 0 451.255 73" xmlns="http://www.w3.org/2000/svg"><g id="svgGroup" stroke-linecap="round" fill-rule="evenodd" font-size="9pt" stroke="#e0bbe4" stroke-width="0.25mm" fill="#e0bbe4" style="stroke:#e0bbe4;stroke-width:0.25mm;fill:#e0bbe4"><path d="M 10.384 41.368 A 1342.004 1342.004 0 0 0 10.378 41.1 A 2006.327 2006.327 0 0 1 20.274 40.789 Q 35.899 40.339 44.268 40.395 A 240.43 240.43 0 0 1 44.878 40.4 A 18752.114 18752.114 0 0 1 44.98 48.441 Q 45.178 64.356 45.178 67.2 A 6.641 6.641 0 0 0 45.324 68.64 Q 45.647 70.091 46.678 70.95 Q 48.178 72.2 50.178 72.2 Q 52.178 72.2 53.678 70.95 A 3.986 3.986 0 0 0 54.98 68.851 Q 55.153 68.201 55.175 67.424 A 8.055 8.055 0 0 0 55.178 67.2 Q 55.178 60.7 54.978 48.3 Q 54.678 36 54.678 26.1 Q 54.747 20.462 55.004 13.171 A 948.624 948.624 0 0 1 55.278 6.2 A 7.947 7.947 0 0 0 55.284 5.882 Q 55.284 5.112 55.128 4.463 A 3.935 3.935 0 0 0 53.928 2.4 Q 52.478 1.1 50.528 0.95 A 5.805 5.805 0 0 0 50.082 0.933 A 5.204 5.204 0 0 0 46.978 1.95 A 3.867 3.867 0 0 0 45.524 4.041 Q 45.312 4.741 45.278 5.6 A 347.063 347.063 0 0 0 44.892 15.641 Q 44.763 20.882 44.763 26.563 A 521.876 521.876 0 0 0 44.778 30.4 A 274.21 274.21 0 0 0 42.857 30.39 Q 31.811 30.367 10.178 31.1 Q 9.878 16.5 10.178 5.8 A 7.947 7.947 0 0 0 10.184 5.482 Q 10.184 4.712 10.028 4.063 A 3.935 3.935 0 0 0 8.828 2 Q 7.378 0.7 5.428 0.65 Q 3.478 0.6 1.878 1.8 A 4.098 4.098 0 0 0 0.337 4.21 A 6.22 6.22 0 0 0 0.178 5.4 A 291.109 291.109 0 0 0 0.05 10.686 Q -0.118 21.429 0.278 37.5 Q 0.777 57.854 0.579 67.059 A 178.362 178.362 0 0 1 0.578 67.1 A 6.143 6.143 0 0 0 0.755 68.62 A 4.173 4.173 0 0 0 2.078 70.8 Q 3.578 72.1 5.578 72.15 Q 7.578 72.2 9.078 71 Q 10.49 69.87 10.573 67.589 A 7.961 7.961 0 0 0 10.578 67.3 Q 10.776 58.074 10.384 41.368 Z M 360.778 54 L 361.478 51.9 A 5.669 5.669 0 0 0 361.778 50.128 A 5.403 5.403 0 0 0 361.778 50.1 A 4.918 4.918 0 0 0 361.426 48.213 A 4.573 4.573 0 0 0 360.178 46.5 A 5.704 5.704 0 0 0 358.393 45.418 A 5.205 5.205 0 0 0 356.578 45.1 A 4.344 4.344 0 0 0 354.302 45.753 A 5.483 5.483 0 0 0 353.928 46 A 5.096 5.096 0 0 0 352.314 47.948 A 6.408 6.408 0 0 0 352.078 48.5 L 351.078 51.7 Q 350.078 55.1 349.378 56.3 Q 346.552 61.417 338.825 62.626 A 34.061 34.061 0 0 1 333.578 63 Q 329.578 63 325.778 62 A 27.581 27.581 0 0 1 322.457 60.909 A 20.085 20.085 0 0 1 319.278 59.3 A 16 16 0 0 1 316.562 57.025 Q 315.428 55.854 314.365 54.358 A 28.654 28.654 0 0 1 313.878 53.65 Q 311.378 49.9 309.878 45.5 Q 308.378 41.1 308.378 37 A 26.533 26.533 0 0 1 315.098 19.326 A 36.238 36.238 0 0 1 317.478 16.8 A 24.424 24.424 0 0 1 331.791 10.203 A 30.62 30.62 0 0 1 332.778 10.1 A 17.647 17.647 0 0 1 334.006 10.057 Q 337.692 10.057 341.378 11.6 A 16.075 16.075 0 0 1 343.745 12.849 A 20.17 20.17 0 0 1 345.178 13.85 A 29.247 29.247 0 0 1 347.157 15.497 A 23.251 23.251 0 0 1 348.478 16.8 L 352.178 21.3 A 6.138 6.138 0 0 0 353.365 22.401 A 4.317 4.317 0 0 0 355.878 23.2 Q 357.978 23.2 359.578 21.7 A 5.357 5.357 0 0 0 360.641 20.349 A 4.44 4.44 0 0 0 361.178 18.2 Q 361.178 16.6 359.978 15.1 L 356.978 11.4 Q 353.878 7.9 351.278 5.75 A 20.059 20.059 0 0 0 347.701 3.408 A 25.706 25.706 0 0 0 344.978 2.2 Q 339.278 0 333.578 0 A 33.64 33.64 0 0 0 321.342 2.353 A 38.623 38.623 0 0 0 320.478 2.7 Q 314.978 5.1 310.578 9.5 Q 304.778 15.3 301.578 22.4 Q 298.378 29.5 298.378 37 Q 298.378 42.6 300.378 48.65 Q 302.378 54.7 305.978 59.8 A 31.912 31.912 0 0 0 309.695 64.317 A 24.554 24.554 0 0 0 313.878 67.7 Q 317.778 70.2 323.078 71.6 Q 328.378 73 333.878 73 Q 335.778 73 336.678 72.9 Q 343.878 72.3 349.478 69.4 Q 355.078 66.5 358.178 61.1 A 21.58 21.58 0 0 0 358.661 59.986 Q 359.489 57.941 360.778 54 Z M 79.078 51.5 L 79.378 51.5 Q 79.378 51.2 97.378 51.1 L 114.478 50.8 Q 115.978 50.8 117.278 50.3 A 6.233 6.233 0 0 0 119.349 48.44 Q 120.498 46.769 120.378 44.3 Q 120.279 42.725 119.745 40.859 A 22.385 22.385 0 0 0 119.728 40.8 A 203.715 203.715 0 0 1 119.245 39.107 Q 119.022 38.311 118.832 37.601 A 118.216 118.216 0 0 1 118.778 37.4 Q 118.278 36 117.778 34.4 Q 117.178 32.8 114.678 29.6 Q 111.778 25.8 107.678 23.35 A 21.849 21.849 0 0 0 102.527 21.147 A 29.937 29.937 0 0 0 97.778 20.2 A 29.502 29.502 0 0 0 94.241 19.982 A 24.787 24.787 0 0 0 86.928 21.05 A 26.225 26.225 0 0 0 79.26 24.805 A 24.711 24.711 0 0 0 78.028 25.75 Q 74.178 28.9 71.728 33.1 Q 69.278 37.3 68.478 41.9 A 64.95 64.95 0 0 0 68.234 44.284 Q 68.004 47.073 68.113 49.163 A 20.89 20.89 0 0 0 68.178 50.05 Q 68.478 53.2 69.778 56.4 A 23.302 23.302 0 0 0 71.098 59.099 Q 72.256 61.144 73.978 63.4 A 18.21 18.21 0 0 0 77.793 67.071 Q 79.549 68.346 81.742 69.403 A 31.464 31.464 0 0 0 82.378 69.7 A 32.111 32.111 0 0 0 88.758 71.792 A 43.995 43.995 0 0 0 95.278 72.7 A 67.224 67.224 0 0 0 96.522 72.712 Q 99.997 72.712 102.615 72.329 A 24.136 24.136 0 0 0 104.178 72.05 A 45.757 45.757 0 0 0 106.648 71.452 Q 107.854 71.123 108.892 70.755 A 23.379 23.379 0 0 0 110.078 70.3 Q 111.778 69.7 113.378 68.8 A 7.021 7.021 0 0 0 114.742 67.802 A 4.915 4.915 0 0 0 116.078 65.7 A 6.101 6.101 0 0 0 116.352 64.289 Q 116.434 63.125 116.028 62 Q 115.378 60.2 113.728 59.35 A 3.996 3.996 0 0 0 111.982 58.914 Q 110.995 58.887 109.844 59.277 A 8.732 8.732 0 0 0 109.778 59.3 Q 107.878 60.4 106.578 61.05 Q 105.586 61.546 103.664 62.129 A 53.067 53.067 0 0 1 102.378 62.5 Q 99.961 63.058 96.42 62.924 A 40.158 40.158 0 0 1 95.878 62.9 A 29.834 29.834 0 0 1 89.717 61.864 Q 81.124 59.381 79.078 51.5 Z M 220.078 5.7 L 220.278 21.7 A 13.522 13.522 0 0 0 218.466 20.901 Q 216.368 20.137 213.278 19.6 Q 199.778 17.2 191.478 26.5 Q 184.578 34.3 184.478 45.1 Q 184.436 50.172 185.608 54.494 A 26.333 26.333 0 0 0 191.078 64.9 Q 194.778 69.3 200.178 71.2 A 20.963 20.963 0 0 0 206.964 72.363 Q 209.429 72.389 212.078 71.9 A 21.784 21.784 0 0 0 219.177 69.151 A 26.298 26.298 0 0 0 221.078 67.9 Q 221.571 70.367 222.844 71.276 A 2.831 2.831 0 0 0 222.878 71.3 Q 224.178 72.2 225.778 72.2 A 5.009 5.009 0 0 0 227.921 71.748 A 4.933 4.933 0 0 0 229.328 70.75 A 4.819 4.819 0 0 0 230.777 67.265 A 6.039 6.039 0 0 0 230.778 67.2 A 1317.097 1317.097 0 0 0 230.739 58.033 Q 230.614 40.412 230.078 5.5 A 6.133 6.133 0 0 0 229.916 4.049 A 4.01 4.01 0 0 0 228.578 1.85 A 5.072 5.072 0 0 0 225.231 0.648 A 6.126 6.126 0 0 0 225.078 0.65 Q 223.078 0.7 221.578 1.95 A 3.986 3.986 0 0 0 220.276 4.049 Q 220.103 4.699 220.081 5.476 A 8.055 8.055 0 0 0 220.078 5.7 Z M 438.978 29.2 L 443.378 29 A 6.612 6.612 0 0 0 444.804 28.738 Q 445.712 28.458 446.349 27.905 A 3.715 3.715 0 0 0 446.978 27.2 Q 448.078 25.6 447.928 23.65 Q 447.778 21.7 446.428 20.3 Q 445.078 18.9 442.578 19 L 439.278 19.2 L 439.578 9.7 A 7.947 7.947 0 0 0 439.584 9.382 Q 439.584 8.612 439.428 7.963 A 3.935 3.935 0 0 0 438.228 5.9 Q 436.778 4.6 434.828 4.55 A 6.315 6.315 0 0 0 434.666 4.548 A 5.675 5.675 0 0 0 431.278 5.65 A 3.867 3.867 0 0 0 429.824 7.741 Q 429.612 8.441 429.578 9.3 Q 429.378 14.7 429.278 20 L 426.978 20.2 A 6.511 6.511 0 0 0 425.518 20.61 A 4.234 4.234 0 0 0 423.528 22.25 Q 422.478 23.9 422.678 25.8 Q 422.878 27.7 424.278 29.05 Q 425.652 30.376 428.087 30.207 A 8.518 8.518 0 0 0 428.178 30.2 L 428.978 30.1 A 658.669 658.669 0 0 0 428.934 32.05 Q 428.884 34.465 428.878 35.8 A 75.568 75.568 0 0 0 428.878 36.1 Q 428.695 44.89 428.931 50.746 A 119.299 119.299 0 0 0 428.978 51.8 A 98.625 98.625 0 0 0 429.162 55.217 Q 429.536 60.333 430.378 62.4 Q 431.878 65.8 434.128 67.6 Q 436.378 69.4 439.078 70.4 A 15.702 15.702 0 0 0 440.233 70.79 Q 440.806 70.96 441.461 71.117 A 30.836 30.836 0 0 0 442.278 71.3 A 83.367 83.367 0 0 1 443.008 71.465 Q 443.998 71.695 444.49 71.841 A 6.075 6.075 0 0 1 444.678 71.9 A 7.243 7.243 0 0 0 445.612 72.147 Q 447.409 72.489 448.728 71.65 Q 450.378 70.6 450.978 68.75 A 5.508 5.508 0 0 0 451.255 67.042 Q 451.255 66.14 450.945 65.237 A 6.326 6.326 0 0 0 450.878 65.05 A 3.89 3.89 0 0 0 449.045 62.985 A 6.035 6.035 0 0 0 447.878 62.5 Q 447.265 62.27 446.184 61.953 A 64.08 64.08 0 0 0 445.478 61.75 Q 443.878 61.3 442.528 60.9 Q 441.229 60.515 440.994 60.315 A 0.287 0.287 0 0 1 440.978 60.3 Q 439.678 59.5 439.378 57.3 Q 439.078 55.1 438.978 51.5 A 128.693 128.693 0 0 1 438.855 48.161 Q 438.73 43.132 438.878 36.2 A 145.754 145.754 0 0 1 438.884 34.937 Q 438.903 32.8 438.978 29.2 Z M 163.978 66.1 L 163.978 67.6 Q 164.078 70 165.678 71.15 A 5.675 5.675 0 0 0 169.066 72.252 A 6.315 6.315 0 0 0 169.228 72.25 Q 171.178 72.2 172.628 70.9 Q 173.984 69.684 173.984 67.505 A 7.329 7.329 0 0 0 173.978 67.2 A 279.072 279.072 0 0 1 173.91 64.61 Q 173.884 63.452 173.864 62.162 A 553.676 553.676 0 0 1 173.828 59.45 Q 173.778 54.9 173.778 50.35 Q 173.778 45.8 173.578 42.5 A 84.983 84.983 0 0 0 172.334 32.171 A 76.279 76.279 0 0 0 171.878 29.9 Q 171.778 27.7 170.178 26.3 A 0.126 0.126 0 0 0 170.157 26.245 Q 170.081 26.115 169.737 25.761 A 16.608 16.608 0 0 0 169.578 25.6 L 168.278 24.3 Q 167.797 23.887 167.197 23.38 A 338.555 338.555 0 0 0 166.628 22.9 Q 165.9 22.287 165.261 21.909 A 6.221 6.221 0 0 0 164.878 21.7 A 27.73 27.73 0 0 0 160.298 19.904 Q 157.409 19.073 154.662 19.073 A 17.63 17.63 0 0 0 151.828 19.3 A 23.489 23.489 0 0 0 141.175 23.987 A 27.897 27.897 0 0 0 140.528 24.5 Q 135.378 28.7 131.678 35.1 A 41.711 41.711 0 0 0 127.982 43.115 A 37.781 37.781 0 0 0 127.378 45.1 A 19.325 19.325 0 0 0 126.715 49.555 Q 126.638 51.761 127.005 54.166 A 31.441 31.441 0 0 0 127.478 56.6 Q 128.978 63 134.178 67.3 A 19.967 19.967 0 0 0 145.345 72.069 Q 147.371 72.295 149.578 72.2 A 28.377 28.377 0 0 0 154.105 71.649 A 22.49 22.49 0 0 0 157.678 70.6 A 17.251 17.251 0 0 0 161.393 68.413 A 23.061 23.061 0 0 0 163.978 66.1 Z M 277.878 66.1 L 277.878 67.6 Q 277.978 70 279.578 71.15 A 5.675 5.675 0 0 0 282.966 72.252 A 6.315 6.315 0 0 0 283.128 72.25 Q 285.078 72.2 286.528 70.9 Q 287.884 69.684 287.884 67.505 A 7.329 7.329 0 0 0 287.878 67.2 A 279.072 279.072 0 0 1 287.81 64.61 Q 287.784 63.452 287.764 62.162 A 553.676 553.676 0 0 1 287.728 59.45 Q 287.678 54.9 287.678 50.35 Q 287.678 45.8 287.478 42.5 A 84.983 84.983 0 0 0 286.234 32.171 A 76.279 76.279 0 0 0 285.778 29.9 Q 285.678 27.7 284.078 26.3 A 0.126 0.126 0 0 0 284.057 26.245 Q 283.981 26.115 283.637 25.761 A 16.608 16.608 0 0 0 283.478 25.6 L 282.178 24.3 Q 281.697 23.887 281.097 23.38 A 338.555 338.555 0 0 0 280.528 22.9 Q 279.8 22.287 279.161 21.909 A 6.221 6.221 0 0 0 278.778 21.7 A 27.73 27.73 0 0 0 274.198 19.904 Q 271.309 19.073 268.562 19.073 A 17.63 17.63 0 0 0 265.728 19.3 A 23.489 23.489 0 0 0 255.075 23.987 A 27.897 27.897 0 0 0 254.428 24.5 Q 249.278 28.7 245.578 35.1 A 41.711 41.711 0 0 0 241.882 43.115 A 37.781 37.781 0 0 0 241.278 45.1 A 19.325 19.325 0 0 0 240.615 49.555 Q 240.538 51.761 240.905 54.166 A 31.441 31.441 0 0 0 241.378 56.6 Q 242.878 63 248.078 67.3 A 19.967 19.967 0 0 0 259.245 72.069 Q 261.271 72.295 263.478 72.2 A 28.377 28.377 0 0 0 268.005 71.649 A 22.49 22.49 0 0 0 271.578 70.6 A 17.251 17.251 0 0 0 275.293 68.413 A 23.061 23.061 0 0 0 277.878 66.1 Z M 405.578 66.1 L 405.578 67.6 Q 405.678 70 407.278 71.15 A 5.675 5.675 0 0 0 410.666 72.252 A 6.315 6.315 0 0 0 410.828 72.25 Q 412.778 72.2 414.228 70.9 Q 415.584 69.684 415.584 67.505 A 7.329 7.329 0 0 0 415.578 67.2 A 279.072 279.072 0 0 1 415.51 64.61 Q 415.484 63.452 415.464 62.162 A 553.676 553.676 0 0 1 415.428 59.45 Q 415.378 54.9 415.378 50.35 Q 415.378 45.8 415.178 42.5 A 84.983 84.983 0 0 0 413.934 32.171 A 76.279 76.279 0 0 0 413.478 29.9 Q 413.378 27.7 411.778 26.3 A 0.126 0.126 0 0 0 411.757 26.245 Q 411.681 26.115 411.337 25.761 A 16.608 16.608 0 0 0 411.178 25.6 L 409.878 24.3 Q 409.397 23.887 408.797 23.38 A 338.555 338.555 0 0 0 408.228 22.9 Q 407.5 22.287 406.861 21.909 A 6.221 6.221 0 0 0 406.478 21.7 A 27.73 27.73 0 0 0 401.898 19.904 Q 399.009 19.073 396.262 19.073 A 17.63 17.63 0 0 0 393.428 19.3 A 23.489 23.489 0 0 0 382.775 23.987 A 27.897 27.897 0 0 0 382.128 24.5 Q 376.978 28.7 373.278 35.1 A 41.711 41.711 0 0 0 369.582 43.115 A 37.781 37.781 0 0 0 368.978 45.1 A 19.325 19.325 0 0 0 368.315 49.555 Q 368.238 51.761 368.605 54.166 A 31.441 31.441 0 0 0 369.078 56.6 Q 370.578 63 375.778 67.3 A 19.967 19.967 0 0 0 386.945 72.069 Q 388.971 72.295 391.178 72.2 A 28.377 28.377 0 0 0 395.705 71.649 A 22.49 22.49 0 0 0 399.278 70.6 A 17.251 17.251 0 0 0 402.993 68.413 A 23.061 23.061 0 0 0 405.578 66.1 Z M 208.338 62.346 A 17.037 17.037 0 0 0 210.278 62.1 Q 212.178 61.7 214.278 60.7 A 36.818 36.818 0 0 0 215.161 60.266 Q 216.065 59.805 216.677 59.417 A 7.704 7.704 0 0 0 217.278 59 Q 218.178 58.3 219.178 57.15 Q 220.178 56 220.678 54.7 A 1390.807 1390.807 0 0 0 220.667 49.033 Q 220.631 40.242 220.478 34.5 Q 220.408 34.5 220.339 34.452 A 0.451 0.451 0 0 1 220.278 34.4 Q 216.078 30.8 216.078 30.7 A 2.948 2.948 0 0 0 215.891 30.591 Q 214.985 30.104 212.894 29.667 A 39.901 39.901 0 0 0 211.478 29.4 Q 209.381 29.033 207.524 29.12 A 11.543 11.543 0 0 0 198.978 33.2 A 16.753 16.753 0 0 0 195.711 38.347 A 18.053 18.053 0 0 0 194.478 45.1 A 29.347 29.347 0 0 0 194.473 45.633 Q 194.473 47.573 194.734 49.347 A 19.673 19.673 0 0 0 196.328 54.8 A 16.395 16.395 0 0 0 197.33 56.648 A 12.598 12.598 0 0 0 201.828 61 A 10.366 10.366 0 0 0 203.923 61.893 Q 205.951 62.506 208.338 62.346 Z M 148.985 62.261 A 16.895 16.895 0 0 0 153.178 61.6 A 11.523 11.523 0 0 0 153.681 61.447 Q 154.836 61.069 156.437 60.313 A 51.826 51.826 0 0 0 158.078 59.5 A 12.985 12.985 0 0 0 160.828 57.589 A 15.805 15.805 0 0 0 163.378 54.6 A 2.339 2.339 0 0 1 163.414 54.565 Q 163.513 54.47 163.634 54.375 A 4.019 4.019 0 0 1 163.878 54.2 A 211.65 211.65 0 0 0 163.877 53.604 Q 163.852 44.7 163.074 38.143 A 66.481 66.481 0 0 0 162.178 32.5 Q 161.278 31.3 160.078 30.5 A 12.368 12.368 0 0 0 159.536 30.223 Q 156.187 28.617 152.598 29.44 A 13.373 13.373 0 0 0 149.978 30.35 A 16.166 16.166 0 0 0 147.807 31.568 Q 145.643 33.007 143.721 35.233 A 30.178 30.178 0 0 0 140.678 39.5 A 46.951 46.951 0 0 0 140.522 39.766 Q 134.944 49.371 137.512 55.551 A 11.191 11.191 0 0 0 140.578 59.7 A 10.301 10.301 0 0 0 143.242 61.287 A 12.897 12.897 0 0 0 146.278 62.1 A 15.635 15.635 0 0 0 148.556 62.267 Q 148.77 62.267 148.985 62.261 Z M 262.885 62.261 A 16.895 16.895 0 0 0 267.078 61.6 A 11.523 11.523 0 0 0 267.581 61.447 Q 268.736 61.069 270.337 60.313 A 51.826 51.826 0 0 0 271.978 59.5 A 12.985 12.985 0 0 0 274.728 57.589 A 15.805 15.805 0 0 0 277.278 54.6 A 2.339 2.339 0 0 1 277.314 54.565 Q 277.413 54.47 277.534 54.375 A 4.019 4.019 0 0 1 277.778 54.2 A 211.65 211.65 0 0 0 277.777 53.604 Q 277.752 44.7 276.974 38.143 A 66.481 66.481 0 0 0 276.078 32.5 Q 275.178 31.3 273.978 30.5 A 12.368 12.368 0 0 0 273.436 30.223 Q 270.087 28.617 266.498 29.44 A 13.373 13.373 0 0 0 263.878 30.35 A 16.166 16.166 0 0 0 261.707 31.568 Q 259.543 33.007 257.621 35.233 A 30.178 30.178 0 0 0 254.578 39.5 A 46.951 46.951 0 0 0 254.422 39.766 Q 248.844 49.371 251.412 55.551 A 11.191 11.191 0 0 0 254.478 59.7 A 10.301 10.301 0 0 0 257.142 61.287 A 12.897 12.897 0 0 0 260.178 62.1 A 15.635 15.635 0 0 0 262.456 62.267 Q 262.67 62.267 262.885 62.261 Z M 390.585 62.261 A 16.895 16.895 0 0 0 394.778 61.6 A 11.523 11.523 0 0 0 395.281 61.447 Q 396.436 61.069 398.037 60.313 A 51.826 51.826 0 0 0 399.678 59.5 A 12.985 12.985 0 0 0 402.428 57.589 A 15.805 15.805 0 0 0 404.978 54.6 A 2.339 2.339 0 0 1 405.014 54.565 Q 405.113 54.47 405.234 54.375 A 4.019 4.019 0 0 1 405.478 54.2 A 211.65 211.65 0 0 0 405.477 53.604 Q 405.452 44.7 404.674 38.143 A 66.481 66.481 0 0 0 403.778 32.5 Q 402.878 31.3 401.678 30.5 A 12.368 12.368 0 0 0 401.136 30.223 Q 397.787 28.617 394.198 29.44 A 13.373 13.373 0 0 0 391.578 30.35 A 16.166 16.166 0 0 0 389.407 31.568 Q 387.243 33.007 385.321 35.233 A 30.178 30.178 0 0 0 382.278 39.5 A 46.951 46.951 0 0 0 382.122 39.766 Q 376.544 49.371 379.112 55.551 A 11.191 11.191 0 0 0 382.178 59.7 A 10.301 10.301 0 0 0 384.842 61.287 A 12.897 12.897 0 0 0 387.878 62.1 A 15.635 15.635 0 0 0 390.156 62.267 Q 390.37 62.267 390.585 62.261 Z M 79.278 41.7 Q 80.978 36.2 85.678 32.75 Q 90.322 29.341 96.432 30.082 A 19.311 19.311 0 0 1 96.578 30.1 Q 102.478 30.8 106.478 35.4 Q 108.478 38.1 109.378 41.1 Q 85.078 41.4 79.278 41.7 Z" vector-effect="non-scaling-stroke"/></g></svg>